Coordinates
version=1
nRows=26
nColumns=24
inDegrees=yes

Units are S.I. units (second, meters, Newtons, ...)
Angles are in degrees.

endheader
time	pelvis_tilt	pelvis_list	pelvis_rotation	pelvis_tx	pelvis_ty	pelvis_tz	hip_flexion_r	hip_adduction_r	hip_rotation_r	knee_angle_r	ankle_angle_r	subtalar_angle_r	mtp_angle_r	hip_flexion_l	hip_adduction_l	hip_rotation_l	knee_angle_l	ankle_angle_l	subtalar_angle_l	mtp_angle_l	lumbar_extension	lumbar_bending	lumbar_rotation
      6.25000000	     -6.74290062	      4.56100422	     -3.20774244	      1.68606519	      0.66765921	     -0.20384742	      9.73791295	     -0.76583009	      6.24039760	    -58.99270323	     -6.38879016	    -23.60718229	      0.00000000	     20.30905641	      4.72561986	     -1.45421633	    -16.22707878	      6.18020363	    -15.74473102	      0.00000000	    -10.26504866	    -11.06288922	      8.24522478
      6.26000000	     -6.78294838	      3.95552440	     -2.68883250	      1.69573952	      0.66971475	     -0.20505257	     11.82581751	     -0.06159982	      5.40229052	    -60.19763842	     -4.40342907	    -23.36698277	      0.00000000	     18.96667427	      4.42190431	     -0.72022315	    -15.41584770	      6.75298480	    -15.35986810	      0.00000000	    -10.54810691	    -10.23824017	      7.75417683
      6.27000000	     -6.82128101	      3.29670817	     -2.09563513	      1.70536306	      0.67157199	     -0.20631240	     13.85009237	      0.60585486	      4.43301752	    -60.98666723	     -2.57953219	    -22.84424771	      0.00000000	     17.66835279	      4.05537122	      0.07422261	    -14.65969852	      7.31706026	    -15.00234693	      0.00000000	    -10.82225050	     -9.33630524	      7.23509585
      6.28000000	     -6.85915546	      2.64937331	     -1.45470651	      1.71492469	      0.67318442	     -0.20758018	     15.82447482	      1.16731206	      3.37356308	    -61.40504447	     -0.84921997	    -22.07725170	      0.00000000	     16.42834042	      3.67172297	      0.82433389	    -13.96777549	      7.93460810	    -14.65258173	      0.00000000	    -11.08526737	     -8.44237662	      6.71050168
      6.29000000	     -6.89457327	      2.03908291	     -0.77428312	      1.72441448	      0.67453252	     -0.20882830	     17.74166245	      1.60257812	      2.25624259	    -61.46819538	      0.71673577	    -21.25415390	      0.00000000	     15.24378606	      3.29053545	      1.50578780	    -13.33467879	      8.59638951	    -14.25819387	      0.00000000	    -11.34225748	     -7.59160234	      6.18060748
      6.30000000	     -6.91899132	      1.47582590	     -0.05644299	      1.73382942	      0.67562691	     -0.21003190	     19.57959357	      1.90968908	      1.10663368	    -61.17435934	      2.04767627	    -20.55907131	      0.00000000	     14.09867901	      2.91876796	      2.11531604	    -12.74493061	      9.25343001	    -13.77545532	      0.00000000	    -11.60824537	     -6.79619077	      5.61083821
      6.31000000	     -6.94254985	      0.96740326	      0.69670359	      1.74314878	      0.67644178	     -0.21118851	     21.33439482	      2.08978102	     -0.06032863	    -60.50676240	      2.90153285	    -20.51900510	      0.00000000	     13.01359625	      2.57899278	      2.73759700	    -12.22695416	      9.91276381	    -13.43248624	      0.00000000	    -11.87763955	     -6.07139661	      5.06671832
      6.32000000	     -6.88482320	      0.57711074	      1.39499697	      1.75242752	      0.67706565	     -0.21225904	     22.93719025	      2.08669641	     -1.16610885	    -59.56375267	      4.18289903	    -20.02061912	      0.00000000	     11.87758187	      2.29738434	      3.09672536	    -11.74453241	     10.64075655	    -12.70568736	      0.00000000	    -12.23945747	     -5.47576566	      4.54948729
      6.33000000	     -6.88878836	      0.27915027	      2.10347014	      1.76162677	      0.67736428	     -0.21328230	     24.49520059	      1.95935972	     -2.19134058	    -58.24877240	      4.85134303	    -20.43417554	      0.00000000	     10.84159508	      2.10800611	      3.60075892	    -11.31412834	     11.31784379	    -12.37489334	      0.00000000	    -12.53573038	     -4.98375068	      4.00492230
      6.34000000	     -6.76330206	     -0.00503364	      2.75807245	      1.77085990	      0.67757343	     -0.21420879	     25.77293392	      1.81400899	     -3.12457766	    -56.54179253	      5.37578613	    -21.03206620	      0.00000000	      9.70167956	      1.87382017	      3.90369677	    -10.94609383	     12.11011377	    -11.69010541	      0.00000000	    -12.97550169	     -4.49165827	      3.54237171
      6.35000000	     -6.75813160	     -0.12952135	      3.39238570	      1.78007252	      0.67741093	     -0.21513585	     27.06890555	      1.46796894	     -3.95008290	    -54.54676712	      5.75861193	    -21.80148273	      0.00000000	      8.68712799	      1.81741195	      4.38921784	    -10.59616130	     12.84226335	    -11.42295166	      0.00000000	    -13.26738573	     -4.17116994	      3.03977406
      6.36000000	     -6.68021501	     -0.23762813	      4.00030344	      1.78937161	      0.67712472	     -0.21603582	     28.10726629	      1.11393220	     -4.66412608	    -52.13924838	      5.80197094	    -22.86087887	      0.00000000	      7.59858201	      1.74756439	      4.85504843	    -10.27008058	     13.58744580	    -11.13940905	      0.00000000	    -13.62599787	     -3.83593828	      2.58285908
      6.37000000	     -6.54369862	     -0.31173675	      4.45875535	      1.79880564	      0.67672567	     -0.21672105	     28.87977463	      0.86073521	     -5.03706056	    -49.26433636	      5.11765927	    -24.63639481	      0.00000000	      6.41808114	      1.65138344	      5.08893125	     -9.91211301	     14.22154453	    -10.80131929	      0.00000000	    -14.01936905	     -3.56853630	      2.29287436
      6.38000000	     -6.51643663	     -0.24617199	      4.95125787	      1.80830157	      0.67600183	     -0.21750059	     29.60595510	      0.41024067	     -5.34487564	    -46.09074001	      4.55936880	    -26.02076663	      0.00000000	      5.36311366	      1.71886961	      5.44550465	     -9.62138992	     14.95068434	    -10.64442765	      0.00000000	    -14.27106705	     -3.41793984	      1.95058365
      6.39000000	     -6.47768430	     -0.14105514	      5.45502803	      1.81795326	      0.67513134	     -0.21826413	     30.10346300	     -0.07972072	     -5.56237860	    -42.52285136	      3.99777510	    -27.07999505	      0.00000000	      4.26556717	      1.80201123	      5.81102079	     -9.30029583	     15.55385046	    -10.48315275	      0.00000000	    -14.50772288	     -3.29270521	      1.57367188
      6.40000000	     -6.45843035	      0.04496700	      5.97598050	      1.82777117	      0.67406800	     -0.21902946	     30.40152188	     -0.64918777	     -5.66545150	    -38.58471260	      3.36874400	    -27.81541285	      0.00000000	      3.16403244	      1.95085347	      6.16173043	     -8.97806797	     16.17380378	    -10.28919496	      0.00000000	    -14.68606768	     -3.23387404	      1.13900498
      6.41000000	     -6.45528325	      0.30759254	      6.54094566	      1.83776885	      0.67281457	     -0.21978422	     30.50115165	     -1.32039677	     -5.74358836	    -34.31810036	      2.76387176	    -28.05490046	      0.00000000	      2.05893292	      2.15450378	      6.50111262	     -8.66402847	     16.79665555	    -10.03926405	      0.00000000	    -14.82279039	     -3.25203778	      0.61540820
      6.42000000	     -6.52654128	      0.69865424	      7.21597493	      1.84790153	      0.67130961	     -0.22061964	     30.48812645	     -2.19667477	     -5.88185450	    -29.81420154	      2.27170123	    -27.65468383	      0.00000000	      1.03240739	      2.48895332	      6.95014537	     -8.41790774	     17.39794084	     -9.76688035	      0.00000000	    -14.86670491	     -3.38628302	     -0.03398573
      6.43000000	     -6.44655649	      1.09449894	      7.89322022	      1.85835184	      0.66976406	     -0.22138086	     30.10969035	     -3.05817627	     -6.09398757	    -25.04148328	      1.58246770	    -26.86360455	      0.00000000	     -0.23658771	      2.76026407	      7.30752583	     -8.06870255	     17.98609391	     -9.39315444	      0.00000000	    -15.03160265	     -3.50336776	     -0.68728482
      6.44000000	     -6.41579931	      1.60337296	      8.71454707	      1.86897004	      0.66798680	     -0.22222244	     29.65604680	     -4.12255777	     -6.57263156	    -20.21513273	      0.96942812	    -25.42912248	      0.00000000	     -1.47113959	      3.12711136	      7.78660096	     -7.76363060	     18.56633404	     -8.99720387	      0.00000000	    -15.13188222	     -3.71907332	     -1.55313675
      6.45000000	     -6.25223415	      2.15792841	      9.56025904	      1.87984143	      0.66616704	     -0.22304484	     29.01591346	     -5.25790295	     -7.58096697	    -15.50409980	      0.80279862	    -22.69255594	      0.00000000	     -2.90380784	      3.47265912	      8.22531063	     -7.42283753	     19.11774468	     -8.54469269	      0.00000000	    -15.37290307	     -3.95555727	     -2.30657572
      6.46000000	     -6.13355811	      2.73993974	     10.51568471	      1.89090777	      0.66417040	     -0.22386541	     28.40756736	     -6.44791694	     -9.10139343	    -11.03590221	      0.82891293	    -19.17193845	      0.00000000	     -4.32362853	      3.79845085	      8.78676160	     -7.08589675	     19.65163418	     -8.09456286	      0.00000000	    -15.54469905	     -4.20563696	     -3.21970144
      6.47000000	     -6.08230055	      3.37912656	     11.49900221	      1.90210620	      0.66202655	     -0.22457151	     27.95239197	     -7.66469751	    -11.09886673	     -7.04230902	      1.27301619	    -14.66975967	      0.00000000	     -5.68247613	      4.13529135	      9.24966479	     -6.78821478	     20.02450754	     -7.64072604	      0.00000000	    -15.66034378	     -4.54605195	     -4.19360047
      6.48000000	     -5.95732098	      3.88616846	     12.42989118	      1.91351538	      0.65986858	     -0.22505845	     27.48116147	     -8.61473657	    -13.19974335	     -3.46663325	      1.53822750	    -10.05115762	      0.00000000	     -7.14090869	      4.25277983	      9.72352813	     -6.45943811	     20.49020863	     -7.13115319	      0.00000000	    -15.82480385	     -4.75109490	     -4.94099933
      6.49000000	     -5.89203731	      4.33098334	     13.32833838	      1.92503487	      0.65762097	     -0.22532392	     27.15464942	     -9.41405047	    -14.98603309	     -0.41965196	      1.74714183	     -5.71619914	      0.00000000	     -8.50420484	      4.25803827	     10.10507702	     -6.18837032	     20.87616239	     -6.56893366	      0.00000000	    -15.92148596	     -4.93116776	     -5.65362938
      6.50000000	     -5.87442980	      4.72320006	     14.13829642	      1.93666879	      0.65529516	     -0.22535677	     26.94844031	    -10.08967420	    -16.10743688	      2.07475183	      1.85186895	     -2.12538320	      0.00000000	     -9.77222348	      4.17895404	     10.38082745	     -6.00009407	     21.17544452	     -5.98464180	      0.00000000	    -15.96052737	     -5.10217534	     -6.22858933
